<svg width="66" height="38" viewBox="0 0 66 38" fill="none" xmlns="http://www.w3.org/2000/svg">
<path fill-rule="evenodd" clip-rule="evenodd" d="M29.2568 10.6956C29.0144 12.1131 29.9434 13.1858 31.3168 13.1475C32.0439 13.1475 32.6901 12.841 33.3364 12.6111C33.5788 13.339 33.9019 13.7988 34.5078 14.1436C35.0733 14.4884 35.6388 14.6416 36.3659 14.6799C38.3451 14.7949 39.8397 13.7988 41.0514 13.1092C41.1726 13.0325 41.2534 12.9559 41.2938 12.841C41.3342 12.7261 41.7381 12.5345 41.8189 12.4579C41.8997 12.4196 41.8997 12.3046 41.9401 12.228C41.9805 12.1514 42.4652 11.8066 42.8691 11.6533C42.9499 11.615 43.0307 11.1553 42.7883 11.0404C42.546 10.9254 42.1824 11.2319 41.8997 11.3852C41.5766 11.5767 41.2534 11.6917 41.0111 11.8066C40.4456 12.0748 39.8801 12.4196 39.1934 12.6111C37.4969 13.0709 36.0024 12.4579 35.558 11.2702C36.0427 10.8488 36.4871 10.4274 36.9314 10.006C37.9816 9.04817 39.8397 6.48132 39.4761 5.98327C39.2338 5.71509 38.7491 5.90665 38.5471 5.98327C38.4663 6.02158 38.3047 5.98327 38.224 6.02158C37.7796 6.17483 37.2949 6.55794 36.8506 6.78781C36.3659 7.05599 35.9216 7.28585 35.5176 7.63066C34.427 8.55013 33.6192 9.89102 33.2556 11.2319C32.2054 11.4618 31.5188 10.4657 31.6803 9.4696C33.0941 8.39688 34.2655 7.13261 35.5176 5.83002C36.2851 5.02549 36.8506 4.14433 37.4161 3.26317C37.5373 3.07161 37.5373 2.95668 37.6181 2.72681C37.6988 2.49694 37.9008 2.22876 37.9816 1.88396C38.1836 1.3476 38.4259 0.428129 38.022 0.0450161C37.7796 -0.14654 36.4871 0.313195 35.9216 0.657997C35.3561 1.0028 34.831 1.23267 34.3462 1.50085C34.0635 1.6924 33.7808 2.0372 33.498 2.30538C33.2153 2.57356 33.0133 2.95668 32.7709 3.26317C31.8015 4.60406 31.1148 5.90665 30.3474 7.40079C30.105 7.89884 29.8223 8.58844 29.6203 9.16311C29.5395 9.39298 29.5395 9.43129 29.4183 9.54622C29.2568 9.77609 28.5297 10.1975 28.2469 10.3124C28.1662 10.3508 27.1159 10.6956 27.3583 11.3085C27.6007 11.5384 28.6509 10.8871 29.2568 10.6956ZM37.4161 7.28583C37.4565 7.28583 37.4969 7.28583 37.4969 7.32415C37.6181 7.59233 37.3757 7.93713 37.2141 8.167C36.7698 8.77998 36.2043 9.62282 35.6388 9.891C35.8408 8.77998 36.6082 7.93713 37.4161 7.28583ZM35.6388 1.769C35.6792 1.69237 35.76 1.65406 35.962 1.69237C36.1235 1.73068 35.6388 3.03327 35.3561 3.60794C34.629 4.98715 33.4576 6.09817 32.4882 7.17089C33.2556 5.37026 34.3866 3.30145 35.6388 1.769Z" fill="#E2645A"/>
<path fill-rule="evenodd" clip-rule="evenodd" d="M64.8428 20.465C64.2773 20.3884 63.3886 20.1202 62.8635 20.0819C62.6212 20.0436 61.2882 19.852 60.5207 20.0052C60.3188 20.0436 60.1168 20.0436 59.9148 20.0052C60.9651 19.7371 62.1364 19.6221 63.3482 19.9286C63.3078 19.9286 63.7926 19.9669 64.2369 20.0052C64.1965 20.0052 64.2773 20.0052 64.2773 20.0052C64.8024 20.1202 65.1255 20.0436 65.6102 19.9669C65.2467 19.6988 64.4388 19.852 64.2773 19.3923C64.4792 19.2007 64.9639 19.3923 65.2467 19.3923C65.1255 19.239 64.8832 19.239 64.762 19.1241C64.8832 19.0858 65.0043 19.2007 65.0851 19.1241C64.9235 19.0475 65.0447 19.0091 65.1659 18.9708C64.8428 18.8942 64.358 18.8942 64.3984 18.5494C64.7216 18.5877 65.3275 18.6643 65.3679 18.6643C65.4083 18.626 65.1659 18.5494 65.1659 18.4728C64.7216 18.3962 64.1157 18.1663 63.6714 17.9747C63.7118 17.8598 63.5906 17.7832 63.429 17.7449C64.1157 17.8215 64.7216 17.9747 65.3679 18.0131C65.2467 17.9747 65.4083 17.9364 65.4083 17.9364C65.3679 17.9364 65.2871 17.8981 65.2467 17.8981C65.2871 17.8981 65.2871 17.8981 65.3275 17.8981C65.3275 17.8981 65.2467 17.8981 65.1659 17.8598C65.1255 17.8598 65.0851 17.8215 65.0447 17.8215C64.762 17.7449 64.2773 17.5916 63.9945 17.4001C64.5196 17.4384 65.0043 17.4767 65.489 17.515C64.4388 17.0936 62.298 17.1319 61.167 17.5533C60.44 17.8598 59.1474 18.2046 58.3395 18.626C58.5011 18.2046 58.7838 17.6299 58.7031 17.1702C58.6223 17.2851 58.6223 17.515 58.5011 17.5533C58.4607 17.515 58.5819 17.3235 58.4203 17.4384C58.5011 17.0936 58.7838 16.7488 58.7435 16.4423C58.5819 16.3657 58.5819 16.2124 58.3395 16.1741C58.2991 16.1741 58.2991 16.2124 58.2184 16.2507C58.2587 16.1741 58.3799 16.1358 58.2991 16.0592C58.0164 16.0209 57.8548 15.9059 57.5317 15.9826C57.5721 16.1358 57.6529 16.2507 57.5317 16.3657C57.047 16.3657 56.9662 15.9442 56.7642 15.7527C56.5219 15.7144 56.5219 15.9059 56.3603 15.9442C56.3199 15.9826 56.3603 16.289 56.2795 16.4806C56.1179 16.902 55.9564 17.4384 55.714 17.8598C55.5524 18.128 55.3505 18.5494 55.1889 18.7793C54.8254 19.3156 54.7042 19.9286 54.3406 20.3884C54.381 20.5799 54.1791 20.6182 54.0983 20.7715C54.0579 20.8481 54.0579 21.0013 53.9771 21.1163C53.8155 21.4228 53.5328 21.7293 53.3308 22.0741C52.6845 22.9935 51.9979 23.9513 51.392 24.7942C50.988 25.3688 50.5841 25.9052 50.1802 26.4415C50.0186 26.6714 49.8167 26.8247 49.7359 27.0545C49.6955 27.1695 49.7763 27.3227 49.7359 27.3993C49.6955 27.5909 49.4935 27.7441 49.5339 27.974C49.6147 28.0123 49.7763 28.0123 49.8571 28.0889C49.7359 28.4337 49.4127 28.587 49.4935 28.9701C49.6955 29.0467 49.8571 28.8935 49.9782 29.0084C50.1398 28.8552 50.3014 28.6253 50.4629 28.4337C50.6245 28.2805 50.8265 27.974 51.0688 28.0889C50.9477 28.4337 50.5437 28.587 50.7053 28.9701C50.9073 29.085 51.0284 28.8935 51.19 29.0084C51.7151 28.472 52.119 27.8591 52.7249 27.4376C53.3308 26.7097 53.8963 25.9435 54.381 25.139C54.7446 24.7558 55.0677 24.3727 55.3909 23.9896C55.714 23.6065 55.9564 23.1468 56.2795 22.7253C56.4411 22.5338 56.7642 22.4189 57.0066 22.2656C57.7336 21.7293 58.2991 21.2695 59.1878 20.9247C60.1168 20.5799 61.0862 20.3117 62.0557 20.3117C62.6212 20.3884 63.2674 20.35 63.7118 20.5799C63.7118 20.5799 63.7522 20.6182 63.7926 20.6182C64.6004 20.6948 65.1255 20.8098 65.8122 20.6565C65.691 20.5033 65.3679 20.5416 65.1255 20.5033C64.8428 20.5033 64.9235 20.465 64.8428 20.465ZM51.7959 25.637C51.7151 24.9857 52.1998 24.5643 52.4826 24.1429C52.523 24.1429 53.0481 23.4533 53.3308 23.3384C52.8057 24.0663 52.2402 24.8325 51.7959 25.637ZM55.1485 20.8864C54.8254 21.4228 54.4618 21.9208 53.9771 22.3806C53.9367 22.0358 54.4214 21.6527 54.583 21.2695C55.2697 20.7332 55.5524 19.8137 56.0371 19.0858C56.0775 19.0475 55.9967 18.8176 55.9967 18.7793C56.1987 18.5111 56.3603 18.128 56.5622 17.8598C56.6026 17.8598 56.6026 17.8598 56.643 17.8981C56.643 18.0897 56.6026 18.3196 56.5622 18.3579C56.5219 18.3962 56.5622 18.8942 56.4411 19.1241C56.1583 19.7754 55.5524 20.4267 55.1485 20.8864Z" fill="#E2645A"/>
<path fill-rule="evenodd" clip-rule="evenodd" d="M50.5841 19.2006C51.0284 18.1662 51.7151 17.4 52.1998 16.4422C52.321 16.4422 52.3614 16.3656 52.4422 16.3273C52.119 15.9059 51.7959 16.0591 51.2708 16.174C51.1092 16.4039 50.9073 16.5955 50.7457 16.8253C50.8669 16.5955 50.988 16.3656 51.1092 16.1357C50.8669 16.0974 50.8669 16.289 50.7053 16.2507C50.5437 16.5188 50.261 16.7104 50.1398 17.0552C49.6147 17.3617 49.3319 18.3195 48.8472 18.7026C49.0896 18.3195 49.3723 17.8981 49.6147 17.4766C49.9378 16.9786 50.3822 16.4422 50.4629 15.8676C50.3014 15.8292 50.261 15.6377 50.0994 15.5611C49.4531 15.5994 49.3723 16.174 48.9684 16.4805C48.5241 16.787 48.3221 17.3234 47.9586 17.6299C47.9182 17.7065 47.9182 17.6682 47.9586 17.7831C47.5143 18.3578 47.1911 19.0091 46.5852 19.4305C46.3833 19.9286 45.8986 20.1584 45.6158 20.5798C45.1715 20.8863 44.9695 21.3844 44.6464 21.8058C44.4848 22.0357 44.404 22.1889 44.2829 22.4188C44.1617 22.6103 43.9193 22.7253 43.9193 22.9935C43.4346 23.4532 42.9903 23.9896 42.4652 24.4876C42.1824 24.7175 41.9401 24.9856 41.6573 25.1772C41.1726 25.4837 40.6475 25.9051 40.1628 26.1733C39.3549 26.5564 38.2643 26.4415 38.022 25.6369C37.9412 25.3305 38.022 24.9856 38.0624 24.6792C38.2239 23.3383 39.0722 22.3039 39.88 21.5759C40.2436 21.0396 40.7283 20.6182 41.1322 20.0818C41.5765 19.4688 42.0209 18.7409 42.4652 18.2045C42.4248 18.2045 42.4248 18.1662 42.4248 18.1279C42.7883 17.7065 43.1115 17.2851 43.4346 16.8253C43.3538 16.6721 43.475 16.5572 43.5154 16.4422C43.2326 16.4039 43.1519 16.7104 42.9903 16.902C42.7479 17.1701 42.4652 17.4 42.2228 17.5533C42.3844 17.3234 42.5864 17.1318 42.7075 16.9403C42.6267 16.9403 42.6671 16.787 42.5864 16.787C42.1016 17.1318 41.6169 17.6682 41.213 18.013C41.6169 17.4383 42.0612 16.902 42.6671 16.4805C42.5864 16.4422 42.6267 16.4422 42.6267 16.3656C42.6671 16.289 42.7479 16.289 42.7479 16.174C42.5056 16.174 42.4652 16.4039 42.2632 16.4805C42.3036 16.3656 42.2228 16.3656 42.1824 16.289C41.9401 16.2507 41.8189 16.5188 41.6169 16.3656C41.5765 16.4039 41.5361 16.4805 41.4554 16.5188C41.415 16.4805 41.415 16.4039 41.3342 16.4422C41.213 16.5955 40.5263 16.7104 40.4455 16.787C40.2436 16.902 40.2436 17.1701 40.2032 17.2468C40.2032 17.2468 40.1628 17.3617 40.1628 17.4766C40.0416 17.5149 40.082 17.5916 39.9608 17.5533C39.5973 18.0896 38.8702 18.4727 38.6279 19.0857C38.6279 19.124 38.6279 19.124 38.5471 19.2006C38.5067 19.239 37.9816 20.0818 37.82 20.4266C37.82 20.4649 37.6988 20.6565 37.618 20.7714C37.618 20.7331 37.618 20.6948 37.5777 20.6948C37.3353 21.0779 37.0525 21.461 36.8102 21.8058C36.7698 21.8441 36.689 21.9207 36.689 21.9207C36.689 21.9591 36.0831 22.687 35.8812 23.0701C35.8408 23.1467 35.5176 23.6448 35.2753 24.0279C35.2753 24.0662 35.1945 24.2577 34.9925 24.5642C34.8713 24.6792 34.427 25.1389 34.3058 25.4071C34.2655 25.4454 34.0231 25.7902 33.9827 25.9051C33.9827 25.9434 33.6192 26.5564 33.5384 26.633C33.296 26.7863 33.1748 26.9778 33.0133 27.1311C32.9729 27.7058 32.1246 28.0122 32.6901 28.5486C33.3364 28.0889 33.8211 27.4376 34.4674 26.9778C34.5078 26.9395 34.629 26.8246 34.6694 26.7863C34.9925 27.3226 35.3561 27.8207 35.8812 28.1655C36.2447 28.0889 36.4467 28.4337 36.689 28.6252C36.8102 28.7018 37.0122 28.7402 37.1737 28.8168C37.618 29.0466 37.9412 29.2765 38.4663 29.3914C39.153 29.5064 39.6377 29.5447 40.2032 29.3148C41.6169 28.8168 43.1115 27.9356 44.0001 27.1311C44.1617 27.4376 44.4444 27.6674 44.7676 27.8207C44.8483 27.859 44.9291 27.8973 45.0099 27.9356C45.4138 28.1655 46.1005 28.357 46.7468 28.2804C46.7468 28.1655 46.8276 28.0506 46.868 28.0506C46.9488 28.0122 46.4641 27.7441 46.5852 27.7824C46.5852 27.7824 46.7468 27.859 46.7872 27.8207C46.7872 27.7824 46.6256 27.6291 46.666 27.6291C46.8276 27.6674 47.1103 27.859 47.1507 27.859C47.3123 27.8973 47.4335 27.8973 47.5143 27.859C47.9182 27.9739 48.2009 27.7058 48.4837 27.5142C48.1606 27.3993 47.9586 27.4376 47.5951 27.2843C47.4335 27.2077 46.9488 26.9778 46.9488 26.9012C46.2217 26.7097 45.737 26.0967 45.8986 25.1389C46.7064 24.1428 47.6354 23.2616 48.4029 22.2655C48.8068 21.9591 49.0492 21.4993 49.2916 21.0396C49.9378 20.6182 50.0186 19.6987 50.5841 19.2006ZM35.6388 25.7519C35.4772 25.3304 35.8812 24.7175 36.2447 24.4493C36.0427 24.7941 35.9216 25.4454 36.1235 25.8285C36.2851 26.1733 36.689 26.5564 37.0122 26.748C36.5274 26.633 35.8004 26.2116 35.6388 25.7519ZM38.2643 21.5376C38.3451 21.3844 38.4259 21.2694 38.5067 21.1162C38.6683 20.848 38.749 20.5032 38.9106 20.235C39.153 19.8519 39.4357 19.3539 39.7185 19.124C39.9608 18.9324 40.284 18.8941 40.4859 18.6642C40.5263 18.6642 40.5263 18.6642 40.5667 18.7026C40.4455 18.9707 40.2032 19.124 40.082 19.4305C39.9608 19.4305 39.9608 19.5837 39.7589 19.5454C38.9914 20.3883 38.5471 21.3844 37.9008 22.3038C37.8604 21.9973 38.1432 21.8058 38.2643 21.5376ZM43.9597 24.7558C45.2523 23.6448 46.4237 22.4188 47.4739 21.1162C47.5547 21.0779 47.5547 21.1545 47.5951 21.2312C46.8276 22.074 46.3025 23.1084 45.3331 23.7597C44.9291 24.1428 44.7272 24.6792 43.9597 24.7558ZM45.6158 23.9896C45.535 24.0279 45.3735 23.8746 45.4139 23.8363C46.4237 22.9551 47.3123 21.9591 48.1202 20.8863C48.201 20.848 48.201 20.9246 48.201 20.963C47.6355 21.6526 46.0197 23.8746 45.6158 23.9896Z" fill="#E2645A"/>
<path fill-rule="evenodd" clip-rule="evenodd" d="M34.5078 20.8098C34.5482 20.1202 34.427 19.6604 34.2654 19.0858C33.8615 17.5533 32.8921 16.6722 31.5187 16.0209C31.1148 15.7527 30.7917 15.6377 30.6705 15.5994C30.4281 15.4845 30.0242 15.3696 29.7011 15.3313C29.3779 15.2929 29.0952 15.4845 28.7316 15.4462C28.3277 15.4079 28.0046 15.0631 27.4391 15.2546C25.9041 15.7527 24.6924 16.5955 23.6421 17.5533C23.6017 17.5916 23.6421 17.7066 23.5614 17.7449C23.2786 18.0514 22.7939 18.2429 22.5111 18.5877C22.4304 18.7027 22.4304 18.8176 22.3496 18.9325C22.2688 19.0475 22.1072 19.1241 22.0264 19.2773C21.8245 19.5838 21.6629 19.9286 21.4205 20.2351C20.9762 20.7332 20.6531 21.3078 20.3299 21.8825C20.128 22.2273 19.9664 22.6104 19.8452 22.9935C19.6433 23.1851 19.3605 23.4916 19.2393 23.7981C19.1182 24.1045 19.1585 24.8325 19.1585 25.0623C19.1585 25.2156 19.0778 25.3688 19.0778 25.4838C19.0778 25.5604 19.1182 25.6753 19.1585 25.7902C19.1585 26.0201 19.0778 26.2117 19.1182 26.3649C19.2393 26.9013 19.5221 27.3227 19.6837 27.7441C19.8048 27.7441 19.6836 27.4759 19.8048 27.4759C19.9664 27.8974 20.2088 28.2422 20.5723 28.472C20.8146 28.6253 21.1378 28.7019 21.3801 28.8551C21.5013 28.9318 21.5417 29.0467 21.6225 29.1233C21.7437 29.2 21.9053 29.2 22.0668 29.3149C22.2284 29.4298 22.3092 29.5831 22.4707 29.6597C22.6323 29.7363 23.3594 29.9279 24.0865 29.8512C24.7327 29.8129 25.3386 29.4681 25.9445 29.5064C25.8637 29.5064 25.6618 29.8129 25.7426 29.8129C26.8736 29.4298 28.0046 29.0467 28.974 28.5103C28.772 28.7019 28.3681 28.7785 28.2469 29.0467C29.6203 28.5103 30.832 27.2844 31.8823 26.0201C32.367 25.4454 32.8517 24.7942 33.296 24.1812C33.8615 23.3 34.3866 22.1507 34.5078 20.8098ZM21.6225 21.1929C21.6629 21.3462 21.057 22.2273 21.0166 22.3806C20.9358 22.189 21.3801 21.2312 21.6225 21.1929ZM24.1269 29.0084C24.3692 28.7019 24.8943 28.9701 25.2578 28.9318C25.0155 29.2 24.4904 29.1617 24.1269 29.0084ZM24.9347 28.6636C25.7426 28.3954 26.4292 28.0506 27.2371 27.7824C27.0755 28.0889 26.6716 28.2039 26.1869 28.4337C25.7426 28.6253 25.4598 28.8935 24.9347 28.6636ZM26.3081 28.7019C27.0755 28.2805 27.7218 27.7825 28.5701 27.4377C28.5701 27.3993 28.6104 27.3993 28.6508 27.3993C28.0853 28.0506 27.1159 28.3188 26.3081 28.7019ZM29.2971 24.7942C28.5701 26.0201 27.3179 26.7481 25.783 27.2078C24.3692 27.5526 22.7939 27.0162 21.9456 26.3649L21.9053 26.3266C21.5417 25.8669 20.9762 25.752 21.057 24.8708C21.0974 24.3728 21.3801 23.8747 21.5821 23.3767C21.7033 23.1468 21.7437 22.9169 21.8649 22.7254C22.0668 22.3423 22.3092 21.8825 22.6323 21.576C23.1978 20.2734 23.9249 19.0858 24.9347 18.1663C25.0155 18.128 25.0155 18.0897 25.1367 18.0131C25.3386 17.8598 25.4598 17.7449 25.7022 17.5916C26.3081 17.1702 27.0755 16.9404 27.843 16.7488C28.3277 16.7105 28.9336 16.8637 29.4587 16.902C29.9838 16.902 30.4281 17.2085 30.6301 17.3618C30.9936 17.8598 31.5187 18.2429 31.5995 19.0092C31.5995 19.1624 31.7207 19.3157 31.7611 19.4689C31.8015 19.7371 31.7207 20.0819 31.6803 20.3118C31.6803 20.3884 31.6399 20.5799 31.5995 20.6949C31.4379 21.078 31.1552 21.7293 30.9936 21.9975C30.8724 22.1507 30.7109 22.4572 30.6301 22.6487C30.5493 22.8786 30.4685 23.1085 30.3877 23.2617C30.3069 23.415 30.105 23.6448 30.0646 23.6831C29.8626 23.8747 29.7011 24.2195 29.6203 24.3344C29.6203 24.3728 29.5395 24.526 29.4991 24.5643C29.4183 24.6026 29.3779 24.7176 29.2971 24.7942ZM31.0744 24.4877C30.5493 25.2539 30.0242 26.0202 29.4991 26.7481C29.701 25.9818 30.1858 24.9474 31.0744 24.4877ZM32.5689 22.9169C32.0842 23.8747 31.0744 25.3688 30.2666 26.25C30.9936 25.139 31.8419 23.6448 31.8823 23.3C31.963 23.1468 32.165 22.802 32.2054 22.687C32.2862 22.3422 32.5285 22.1507 32.6497 21.8442C32.6497 22.189 32.6901 22.6104 32.5689 22.9169Z" fill="#E2645A"/>
<path fill-rule="evenodd" clip-rule="evenodd" d="M21.7841 15.5611C21.7841 15.4079 21.8245 15.3312 21.8649 15.2163C21.8245 15.1397 21.6629 15.1014 21.7033 14.9481C21.461 14.9864 21.259 15.2163 21.0974 15.2929C21.057 15.3312 21.0166 15.3312 21.0166 15.3695C20.9762 15.4079 20.8955 15.4079 20.8551 15.4462C20.5723 15.7527 20.4107 16.1358 20.1684 16.5189C19.7645 17.0936 19.4413 17.6299 19.1182 18.2429C18.9566 18.5111 18.8758 18.8559 18.5931 19.0474C18.5527 18.7793 18.7142 18.6643 18.795 18.4728C19.0778 17.8981 19.3605 17.2468 19.7241 16.6721C20.1684 15.9442 20.7339 15.2163 21.0974 14.6033C21.1378 14.4884 21.0166 14.4118 21.0166 14.2585C21.259 13.9137 20.8551 13.6072 20.7339 13.3774C20.6127 13.4157 20.5319 13.6072 20.4107 13.5689C20.5319 13.5306 20.6127 13.3774 20.5319 13.2241C20.4915 13.339 20.4107 13.2241 20.4511 13.2241C20.2896 13.1858 20.2088 13.454 20.0472 13.5689C19.9664 13.6072 19.926 13.5306 19.8452 13.5306C19.4009 13.8371 19.199 14.2585 18.8758 14.7183C18.6739 15.0247 18.4719 15.2929 18.2699 15.5611C18.068 15.8293 17.9468 16.2124 17.7852 16.5189C17.5833 16.8254 17.3813 17.1319 17.2601 17.4384C17.0178 18.0896 16.9774 18.7793 16.6138 19.3922C16.6138 19.4305 16.4926 19.8137 16.3311 19.9669C16.4523 19.5072 16.6946 18.8559 16.8966 18.2046C16.6946 18.3195 16.6946 18.5111 16.6138 18.6643C16.3311 19.3539 15.9675 20.0435 15.6848 20.7331C15.4424 21.3078 15.1193 21.9974 14.7962 22.4954C14.473 23.3383 13.8671 23.8747 13.6248 24.7558C13.7055 24.7941 13.8267 24.4876 13.9883 24.3727C14.0287 24.4493 13.9479 24.6409 13.9075 24.7175C13.7863 24.9091 13.544 25.3305 13.3824 25.6753C13.3016 25.8285 13.1804 25.9435 13.14 26.0967C13.0189 26.3649 13.0189 26.6331 12.9381 26.8629C12.8573 27.0928 12.6957 27.2844 12.5342 27.4759C12.211 27.8973 12.0494 28.3571 11.7263 28.7402C11.5243 28.9701 11.4032 29.2382 11.3628 29.3149C11.282 29.5447 11.08 29.8129 11.0396 29.8895C10.9992 29.9278 10.5953 30.6558 10.151 30.809C10.1106 30.8473 10.0702 30.8856 9.98941 30.9239C9.46431 31.6902 9.14117 32.3798 8.33331 32.8012C8.17174 32.8778 8.13135 32.9544 8.05056 32.9927C7.68703 33.4525 7.2831 33.759 6.59642 33.9122C6.95996 33.759 7.40428 33.3759 7.56585 33.1843C7.48506 33.1843 7.24271 33.2992 7.08114 33.3759C6.67721 33.6057 6.79839 33.5674 6.51564 33.6824C5.99053 34.1421 5.38464 34.4869 4.65757 34.6784C4.61718 34.6784 4.57679 34.6784 4.53639 34.7168C4.29404 34.7934 4.25364 34.6784 4.05168 34.6018C3.97089 34.5635 3.89011 34.4486 3.84972 34.372C3.52657 33.7973 3.24383 33.3759 3.48618 32.5713C3.68815 31.8434 4.45561 30.9622 5.02111 30.6558C5.14228 30.3493 5.46543 29.9662 5.22307 29.5447C5.22307 29.5064 5.18268 29.4298 5.18268 29.3915C5.14228 28.8168 5.0615 28.5486 4.81914 28.1655C4.89993 28.0506 5.02111 28.0123 5.02111 27.8207C4.94032 27.7441 4.89993 27.5909 4.85954 27.4759C4.85954 27.3993 4.81914 27.3227 4.65757 27.2844C4.57679 27.2461 4.61718 27.0928 4.57679 27.0928C4.25364 27.0545 4.37482 27.361 4.17286 27.4376C4.09207 27.3993 4.13247 27.361 4.09207 27.361C3.89011 27.4759 3.56697 27.4759 3.48618 27.5525C3.00147 28.2421 2.63793 29.0467 1.95126 29.583C1.95126 29.7363 1.91086 29.7363 1.83008 29.8512C1.74929 29.8895 1.74929 29.9662 1.66851 29.9662C1.34537 30.4259 1.02222 31.0006 0.82026 31.5369C0.739475 31.7668 0.779868 31.9583 0.699082 32.2265C0.658689 32.3415 0.537511 32.4564 0.497118 32.5713C0.37594 32.9927 0.254762 33.6057 0.295155 34.0655C0.335547 34.6018 0.416333 35.2148 0.658689 35.7129C0.699082 35.7895 0.739475 35.8278 0.739475 35.8661C0.901046 36.0577 1.38576 36.594 1.74929 36.7089C1.78969 36.7473 1.78969 36.8239 1.83008 36.8622C2.51676 37.3602 3.48618 37.6667 4.496 37.7434C4.53639 37.7434 4.53639 37.8583 4.61718 37.82C6.51564 37.5518 7.76781 36.7473 9.01999 35.7895C10.4337 34.7551 11.6051 33.644 12.6149 32.3031C13.0189 31.7668 13.4228 31.2687 13.7459 30.6941C14.0691 30.3876 14.271 30.0045 14.4326 29.583C15.8464 27.7824 16.533 25.4071 17.5429 23.2617C17.5429 23.2234 17.6236 23.1084 17.6236 23.1084C17.9468 21.9591 18.5931 21.0396 19.1182 20.0818C20.0472 18.5877 20.8147 16.9403 21.7841 15.5611ZM9.46431 34.2187C9.46431 34.2953 7.64664 35.6362 7.52546 35.6745C7.00035 36.0193 6.59643 36.1343 6.47525 36.1343C6.35407 36.1343 5.14229 35.981 5.30386 35.8661C5.34425 35.8661 6.31368 35.9427 6.83878 35.7128C7.8486 35.3297 8.93921 34.4869 9.38353 34.1038C9.46431 34.1421 9.46431 34.1804 9.46431 34.2187ZM9.82784 33.9888C9.70667 33.759 10.2722 33.3758 10.3933 33.3758C10.2722 33.5291 10.0298 33.7206 9.82784 33.9888Z" fill="#E2645A"/>
<path fill-rule="evenodd" clip-rule="evenodd" d="M22.7131 11.9598C22.6727 12.0364 23.1171 12.1131 23.1979 12.1897C23.2786 12.2663 23.2382 12.3812 23.319 12.4579C23.8441 12.841 24.5308 12.1897 24.9347 12.0364C25.2983 11.73 25.6618 11.3468 25.985 10.9637C26.0253 10.9254 26.1061 10.7339 26.1061 10.6956C26.1465 10.3124 25.7426 9.92932 25.7426 9.58452C25.7426 9.46959 25.8638 9.35465 25.9042 9.23972C26.1061 8.62674 26.1465 8.09038 25.783 7.66896C24.8136 7.40078 23.7634 8.51181 23.1575 8.97154C23.0363 9.04816 22.8747 9.12479 22.7939 9.1631C22.592 9.35465 22.592 9.39297 22.3496 9.54621C22.188 9.69946 21.7033 9.96764 21.7437 10.2358C21.8649 10.8871 21.9457 11.002 22.2284 11.5001C22.39 11.73 22.5516 11.8066 22.7131 11.9598Z" fill="#E2645A"/>
</svg>
